<?xml version="1.0" encoding="utf-8"?>
<!-- Generator: Adobe Illustrator 24.3.0, SVG Export Plug-In . SVG Version: 6.00 Build 0)  -->
<svg version="1.1" xmlns="http://www.w3.org/2000/svg" xmlns:xlink="http://www.w3.org/1999/xlink" x="0px" y="0px"
	 viewBox="0 0 2200 2200" style="enable-background:new 0 0 2200 2200;" xml:space="preserve">
<style type="text/css">
	.st0{fill:#FFFFFF;}
</style>
<g id="background">
</g>
<g id="objects">
	<path class="st0" d="M1370,1140.7v-33.9v-33.9h-22v-33.9h-22V1005h-22v-33.9v-33.9h-22v-33.9h-22v-33.9v-33.9h-22v-33.9h-22v-33.9
		v-33.9h-22v-33.9h-22v-33.9h-22v-33.9v-33.9h-22v-33.9h-22v-33.9V496h-22h-22h-22v33.9h-22v33.9h-22v33.9h-22v33.9v33.9h-22v33.9
		h-22v33.9v33.9h-22v33.9h-22v33.9h-22v33.9v33.9h-22v33.9h-22v33.9v33.9h-22v33.9h-22v33.9h-22v33.9v33.9h-22v33.9v33.9h22h22h22
		h22h22v-33.9h22h22h22h22h22v-33.9h22v33.9v33.9v33.9v33.9v33.9v33.9v33.9v33.9v33.9v33.9v33.9h22h22h22h22h22h22h22h22v-33.9
		v-33.9v-33.9v-33.9v-33.9v-33.9v-33.9v-33.9v-33.9v-33.9v-33.9h22v33.9h22h22h22h22h22v33.9h22h22h22h22h22v-33.9v-33.9H1370z
		 M1326.1,1174.7h-22v-33.9h-22h-22h-22h-22h-22v-33.9h-22h-22h-22v33.9v33.9v33.9v33.9v33.9v33.9v33.9v33.9v33.9v33.9v33.9h-22h-22
		h-22h-22h-22h-22v-33.9v-33.9v-33.9v-33.9v-33.9v-33.9v-33.9v-33.9v-33.9v-33.9v-33.9h-22h-22h-22v33.9h-22h-22h-22h-22h-22v33.9
		h-22h-22v-33.9h22v-33.9v-33.9h22v-33.9h22V1005v-33.9h22v-33.9h22v-33.9h22v-33.9v-33.9h22v-33.9h22v-33.9h22v-33.9v-33.9h22
		v-33.9h22v-33.9v-33.9h22v-33.9h22h22v33.9h22v33.9h22v33.9v33.9h22v33.9h22v33.9v33.9h22v33.9h22v33.9v33.9h22v33.9h22v33.9h22
		v33.9v33.9h22v33.9h22v33.9v33.9h22v33.9H1326.1z"/>
</g>
</svg>
